<svg width="245" height="60" viewBox="0 0 245 60" fill="none" xmlns="http://www.w3.org/2000/svg">
<path d="M0 2C0 0.895432 0.895431 0 2 0H229.726C230.503 0 231.21 0.45008 231.539 1.15423L244.605 29.1542C244.855 29.6903 244.855 30.3097 244.605 30.8458L231.539 58.8458C231.21 59.5499 230.503 60 229.726 60H2C0.895427 60 0 59.1046 0 58V2Z" fill="#191919"/>
<path d="M18.054 42L27.676 16.5H31.62L41.208 42H37.026L34.952 36.322H24.31L22.236 42H18.054ZM28.322 25.476L25.636 32.684H33.66L30.974 25.476C30.532 24.32 30.124 23.13 30.124 21.872V20.954H29.138V21.872C29.138 23.13 28.764 24.32 28.322 25.476ZM50.3476 27.788H55.9236V22.076H59.3236V27.788H64.9336V30.95H59.3236V36.662H55.9236V30.95H50.3476V27.788Z" fill="white"/>
</svg>
