<svg width="24" height="24" viewBox="0 0 24 24" fill="none" xmlns="http://www.w3.org/2000/svg">
<g clip-path="url(#clip0_1456_11191)">
<path d="M14.1991 4.71073C15.1046 4.71073 15.8387 3.97668 15.8387 3.07119C15.8387 2.16569 15.1046 1.43164 14.1991 1.43164C13.2936 1.43164 12.5596 2.16569 12.5596 3.07119C12.5596 3.97668 13.2936 4.71073 14.1991 4.71073Z" fill="#191919"/>
<path d="M18.8837 8.0369C19.7892 8.0369 20.5232 7.30285 20.5232 6.39736C20.5232 5.49186 19.7892 4.75781 18.8837 4.75781C17.9782 4.75781 17.2441 5.49186 17.2441 6.39736C17.2441 7.30285 17.9782 8.0369 18.8837 8.0369Z" fill="#191919"/>
<path d="M9.22479 13.4223L5.12939 12.18C4.34208 11.9412 2.84653 11.7437 1.58984 11.625L3.2174 17.5671C3.54507 18.7725 4.3143 19.77 5.32075 20.4054L4.5963 21.4703C4.37801 21.7912 4.4612 22.2283 4.78204 22.4465C4.90304 22.5288 5.04053 22.5683 5.17661 22.5683C5.40137 22.5683 5.62228 22.4606 5.75822 22.2608L6.62761 20.9828C7.03998 21.0964 7.47164 21.1576 7.91423 21.1576H16.1426C16.5685 21.1576 16.9843 21.1027 17.3823 20.9987L18.2409 22.2608C18.3769 22.4607 18.5977 22.5683 18.8225 22.5683C18.9586 22.5683 19.0961 22.5288 19.2171 22.4465C19.538 22.2282 19.6211 21.7912 19.4028 21.4703L18.6992 20.436C19.5572 19.9071 20.2475 19.1117 20.6486 18.1306L22.2825 14.104H13.8224C12.2631 14.1041 10.7163 13.8747 9.22479 13.4223Z" fill="#191919"/>
<path d="M22.8217 10.358H13.8229C12.3558 10.358 10.9004 10.1422 9.49714 9.71658L5.40169 8.47427C4.36822 8.16079 2.36188 7.95041 1.28625 7.84895C1.24976 7.84548 1.21261 7.84375 1.17593 7.84375C0.880389 7.84375 0.597919 7.95266 0.380609 8.15044C0.138706 8.37061 0 8.68385 0 9.00979C0 9.61348 0.473079 10.1237 1.07699 10.1713C2.27021 10.2655 4.39267 10.4893 5.53768 10.8366L9.63313 12.0789C10.9922 12.4912 12.4019 12.7002 13.8229 12.7002H22.8217C23.4715 12.7002 24 12.1749 24 11.5291C24 10.8834 23.4714 10.358 22.8217 10.358Z" fill="#191919"/>
</g>
<defs>
<clipPath id="clip0_1456_11191">
<rect width="24" height="24" fill="white"/>
</clipPath>
</defs>
</svg>
