<svg width="24" height="24" viewBox="0 0 24 24" fill="none" xmlns="http://www.w3.org/2000/svg">
<g clip-path="url(#clip0_1456_11173)">
<path d="M23.2969 0H8.48438V7.07812H24V0.703125C24 0.314719 23.6852 0 23.2969 0Z" fill="#191919"/>
<path d="M15.5156 8.48438H8.48438V15.5156H15.5156V8.48438Z" fill="#191919"/>
<path d="M0 16.9219V23.2969C0 23.6852 0.314812 24 0.703125 24H15.5156V16.9219C15.3254 16.9219 0 16.9219 0 16.9219Z" fill="#191919"/>
<path d="M0.703125 0C0.314812 0 0 0.314719 0 0.703125V15.5156H7.07812V0H0.703125Z" fill="#191919"/>
<path d="M16.9219 8.48438V24H23.2969C23.6852 24 24 23.6852 24 23.2969V8.48438H16.9219Z" fill="#191919"/>
</g>
<defs>
<clipPath id="clip0_1456_11173">
<rect width="24" height="24" fill="white"/>
</clipPath>
</defs>
</svg>
