<svg width="24" height="24" viewBox="0 0 24 24" fill="none" xmlns="http://www.w3.org/2000/svg">
<g clip-path="url(#clip0_1456_6300)">
<path d="M5.2737 13.5488C5.00844 13.5488 4.76577 13.6982 4.64614 13.9349L2.55664 18.0717H11.2978V13.5488H5.2737Z" fill="#191919"/>
<path d="M19.3548 13.9349C19.2352 13.6982 18.9925 13.5488 18.7272 13.5488H12.7031V18.0717H21.4443L19.3548 13.9349Z" fill="#191919"/>
<path d="M23.9238 22.9793L22.1546 19.4766H12.7031V23.9995H23.2963C23.8192 23.9995 24.1599 23.4468 23.9238 22.9793Z" fill="#191919"/>
<path d="M1.8454 19.4766L0.0762015 22.9793C-0.159486 23.446 0.18003 23.9995 0.703717 23.9995H11.2969V19.4766H1.8454Z" fill="#191919"/>
<path d="M11.9999 3.60938C10.5783 3.60938 9.42188 4.76592 9.42188 6.1875C9.42188 7.60908 10.5784 8.76562 11.9999 8.76562C13.4213 8.76562 14.5778 7.60908 14.5778 6.1875C14.5778 4.76592 13.4214 3.60938 11.9999 3.60938Z" fill="#191919"/>
<path d="M12 0C11.6117 0 11.2969 0.314812 11.2969 0.703125V2.25033C11.2969 2.63864 11.6117 2.95345 12 2.95345C12.3883 2.95345 12.7031 2.63864 12.7031 2.25033V0.703125C12.7031 0.314812 12.3883 0 12 0Z" fill="#191919"/>
<path d="M12 9.42188C11.6117 9.42188 11.2969 9.73669 11.2969 10.125V11.6722C11.2969 12.0605 11.6117 12.3753 12 12.3753C12.3883 12.3753 12.7031 12.0605 12.7031 11.6722V10.125C12.7031 9.73669 12.3883 9.42188 12 9.42188Z" fill="#191919"/>
<path d="M9.71222 2.90738L8.6183 1.81337C8.34371 1.53877 7.89854 1.53877 7.6239 1.81337C7.34935 2.08791 7.3493 2.53313 7.6239 2.80773L8.71782 3.90174C8.99251 4.17638 9.43772 4.17629 9.71222 3.90174C9.98677 3.62715 9.98682 3.18198 9.71222 2.90738Z" fill="#191919"/>
<path d="M16.3763 9.56949L15.2824 8.47548C15.0078 8.20088 14.5626 8.20088 14.288 8.47548C14.0134 8.75002 14.0134 9.19524 14.288 9.46984L15.3819 10.5639C15.6566 10.8385 16.1018 10.8384 16.3763 10.5639C16.6508 10.2893 16.6509 9.84409 16.3763 9.56949Z" fill="#191919"/>
<path d="M8.06273 5.48438H6.51563C6.12731 5.48438 5.8125 5.79919 5.8125 6.1875C5.8125 6.57581 6.12731 6.89062 6.51563 6.89062H8.06273C8.45105 6.89062 8.76586 6.57581 8.76586 6.1875C8.76586 5.79919 8.45105 5.48438 8.06273 5.48438Z" fill="#191919"/>
<path d="M17.4846 5.48438H15.9375C15.5492 5.48438 15.2344 5.79919 15.2344 6.1875C15.2344 6.57581 15.5492 6.89062 15.9375 6.89062H17.4846C17.8729 6.89062 18.1877 6.57581 18.1877 6.1875C18.1877 5.79919 17.8729 5.48438 17.4846 5.48438Z" fill="#191919"/>
<path d="M9.71222 8.47546C9.43758 8.20087 8.99251 8.20091 8.71782 8.47546L7.6239 9.56947C7.3493 9.84407 7.34935 10.2892 7.6239 10.5638C7.89858 10.8384 8.34366 10.8384 8.6183 10.5638L9.71222 9.46982C9.98682 9.19523 9.98677 8.75001 9.71222 8.47546Z" fill="#191919"/>
<path d="M16.3763 1.81333C16.1016 1.53879 15.6566 1.53879 15.3819 1.81333L14.288 2.90735C14.0134 3.18194 14.0134 3.62711 14.288 3.90171C14.5626 4.1763 15.0077 4.17625 15.2824 3.90171L16.3763 2.80769C16.6509 2.5331 16.6508 2.08788 16.3763 1.81333Z" fill="#191919"/>
</g>
<defs>
<clipPath id="clip0_1456_6300">
<rect width="24" height="24" fill="white"/>
</clipPath>
</defs>
</svg>
