<svg width="24" height="24" viewBox="0 0 24 24" fill="none" xmlns="http://www.w3.org/2000/svg">
<g clip-path="url(#clip0_1591_6407)">
<path d="M22.1344 17.0581L19.7036 15.6548L13.0863 19.4753C12.7664 19.6609 12.4008 19.7584 12.0298 19.7579C11.6618 19.7583 11.2946 19.6597 10.9762 19.4757L4.29695 15.6191L1.86619 17.0225C1.6487 17.1481 1.51465 17.3801 1.51465 17.6313C1.51465 17.8826 1.6487 18.1146 1.86619 18.2402L11.6792 23.906C11.8966 24.0313 12.1649 24.0318 12.3823 23.906L22.1344 18.2758C22.3519 18.1502 22.4859 17.9177 22.4859 17.667C22.4859 17.4162 22.3519 17.1837 22.1344 17.0581Z" fill="black"/>
<path d="M22.1344 11.4097L19.7036 10.0063L13.0863 13.8268C12.7412 14.0273 12.3408 14.125 11.9412 14.1076C11.6028 14.0935 11.2691 13.9965 10.9762 13.8273L4.29695 9.9707L1.86619 11.374C1.6487 11.4997 1.51465 11.7317 1.51465 11.9829C1.51465 12.2341 1.6487 12.4661 1.86619 12.5918C5.13736 14.4802 8.40806 16.3691 11.6792 18.2576C11.7791 18.3153 11.8892 18.3462 12.0003 18.3509C12.0897 18.3613 12.2846 18.3228 12.3823 18.2576C15.6328 16.3809 18.8839 14.5041 22.1344 12.6274C22.3519 12.5018 22.4859 12.2698 22.4859 12.0185C22.4859 11.7673 22.3519 11.5353 22.1344 11.4097Z" fill="black"/>
<path d="M20.5156 7.92065L22.1372 6.98462C22.606 6.71403 22.606 6.03744 22.1373 5.76685L20.0445 4.55859L17.3682 6.10348L20.5156 7.92065Z" fill="black"/>
<path d="M15.9614 5.29088L18.6377 3.74599L16.1217 2.29297L13.4453 3.83833L15.9614 5.29088Z" fill="black"/>
<path d="M14.7157 1.48203L12.3121 0.0942119C12.0946 -0.031404 11.8265 -0.031404 11.609 0.0942119L9.28418 1.43657L12.0393 3.02739L14.7157 1.48203Z" fill="black"/>
<path d="M14.556 6.10294L12.0395 4.65039L9.52344 6.10294L12.04 7.55596L14.556 6.10294Z" fill="black"/>
<path d="M10.6335 3.83887L7.87837 2.24805L5.3623 3.70107L8.11742 5.29142L10.6335 3.83887Z" fill="black"/>
<path d="M1.86323 6.93937L3.56368 7.92124L6.71111 6.10403L3.956 4.51367L1.86332 5.7216C1.39456 5.99219 1.39451 6.66873 1.86323 6.93937Z" fill="black"/>
<path d="M4.96973 8.73323L7.48579 10.1858L10.6337 8.36904L8.11716 6.91602L4.96973 8.73323Z" fill="black"/>
<path d="M12.3906 12.6111L15.1869 10.9964L12.0395 9.17969L8.8916 10.9964L11.6874 12.6111C11.905 12.7367 12.1731 12.7367 12.3906 12.6111Z" fill="black"/>
<path d="M19.1093 8.73323L15.9624 6.91602L13.4463 8.36904L16.5937 10.1858L19.1093 8.73323Z" fill="black"/>
</g>
<defs>
<clipPath id="clip0_1591_6407">
<rect width="24" height="24" fill="white"/>
</clipPath>
</defs>
</svg>
