<svg width="72" height="72" viewBox="0 0 72 72" fill="none" xmlns="http://www.w3.org/2000/svg">
<g clip-path="url(#clip0_1456_6283)">
<path fill-rule="evenodd" clip-rule="evenodd" d="M36.0263 71.9725C55.8913 71.9725 71.9989 55.865 71.9989 35.9999C71.9989 16.1349 55.8913 0.0273438 36.0263 0.0273438C16.1613 0.0273438 0.0537109 16.1349 0.0537109 35.9999C0.0537109 55.865 16.1599 71.9725 36.0263 71.9725Z" fill="#191919"/>
<path d="M27.0281 22.88H28.2161V32H26.6921V25.448H24.7481V24.212H25.0961C25.4921 24.212 25.8161 24.176 26.0681 24.092C26.3201 24.008 26.5121 23.888 26.6441 23.732C26.7761 23.576 26.8841 23.372 26.9681 23.12L27.0281 22.88ZM31.6168 31.604C31.0648 31.244 30.6448 30.716 30.3568 30.008C30.0688 29.3 29.9248 28.448 29.9248 27.44C29.9248 26.432 30.0688 25.58 30.3568 24.872C30.6448 24.164 31.0648 23.636 31.6168 23.276C32.1688 22.916 32.8288 22.736 33.5968 22.736C34.3768 22.736 35.0368 22.916 35.5888 23.276C36.1408 23.636 36.5608 24.164 36.8488 24.872C37.1368 25.58 37.2808 26.432 37.2808 27.44C37.2808 28.448 37.1368 29.3 36.8488 30.008C36.5608 30.716 36.1408 31.244 35.5888 31.604C35.0368 31.964 34.3768 32.144 33.5968 32.144C32.8288 32.144 32.1688 31.964 31.6168 31.604ZM35.1568 30.08V30.104C35.5168 29.516 35.6968 28.64 35.6968 27.476C35.6968 26.312 35.5168 25.436 35.1568 24.848C34.7968 24.26 34.2688 23.96 33.5848 23.96C32.9008 23.96 32.3728 24.248 32.0128 24.836C31.6528 25.424 31.4728 26.3 31.4728 27.464C31.4728 28.628 31.6528 29.504 32.0128 30.092C32.3728 30.68 32.9008 30.968 33.5848 30.968C34.2688 30.968 34.7968 30.668 35.1568 30.08ZM40.2183 31.604C39.6663 31.244 39.2463 30.716 38.9583 30.008C38.6703 29.3 38.5263 28.448 38.5263 27.44C38.5263 26.432 38.6703 25.58 38.9583 24.872C39.2463 24.164 39.6663 23.636 40.2183 23.276C40.7703 22.916 41.4303 22.736 42.1983 22.736C42.9783 22.736 43.6383 22.916 44.1903 23.276C44.7423 23.636 45.1623 24.164 45.4503 24.872C45.7383 25.58 45.8823 26.432 45.8823 27.44C45.8823 28.448 45.7383 29.3 45.4503 30.008C45.1623 30.716 44.7423 31.244 44.1903 31.604C43.6383 31.964 42.9783 32.144 42.1983 32.144C41.4303 32.144 40.7703 31.964 40.2183 31.604ZM43.7583 30.08V30.104C44.1183 29.516 44.2983 28.64 44.2983 27.476C44.2983 26.312 44.1183 25.436 43.7583 24.848C43.3983 24.26 42.8703 23.96 42.1863 23.96C41.5023 23.96 40.9743 24.248 40.6143 24.836C40.2543 25.424 40.0743 26.3 40.0743 27.464C40.0743 28.628 40.2543 29.504 40.6143 30.092C40.9743 30.68 41.5023 30.968 42.1863 30.968C42.8703 30.968 43.3983 30.668 43.7583 30.08ZM15.7007 49V47.68H16.6607C16.9967 47.68 17.2367 47.608 17.3927 47.464C17.5487 47.32 17.6207 47.092 17.6207 46.78V39.88H19.1687V47.044C19.1687 47.68 18.9767 48.16 18.6047 48.496C18.2327 48.832 17.6807 49 16.9607 49H15.7007ZM29.413 49H27.781L26.905 46.384H22.645L21.769 49H20.137L23.293 39.88H26.257L29.413 49ZM24.781 40.072L23.089 45.064H26.461L24.781 40.072ZM36.3417 43.624V39.88H37.8897V49H36.3417V45.004H32.0217V49H30.4737V39.88H32.0217V43.624H36.3417ZM45.5456 49L43.4576 45.448H41.5256V49.012H39.9776V39.892H43.4696C44.1656 39.892 44.7656 40 45.2816 40.228C45.7976 40.456 46.1936 40.78 46.4696 41.2C46.7456 41.62 46.8896 42.112 46.8896 42.676C46.8896 43.288 46.7336 43.804 46.4096 44.236C46.0856 44.668 45.6296 44.992 45.0416 45.196L47.3336 49H45.5456ZM41.5256 41.224L41.5136 44.128H43.4936C44.0576 44.128 44.5016 43.996 44.8136 43.744C45.1256 43.492 45.2816 43.132 45.2816 42.676C45.2816 42.22 45.1256 41.86 44.8136 41.608C44.5016 41.356 44.0696 41.224 43.5056 41.224H41.5256ZM50.2092 44.98V47.668H54.8772V49H48.6612V39.88H54.7692V41.212H50.2092V43.648H54.6852V44.98H50.2092Z" fill="#F4F4F4"/>
</g>
<defs>
<clipPath id="clip0_1456_6283">
<rect width="72" height="72" fill="white"/>
</clipPath>
</defs>
</svg>
