<svg width="24" height="24" viewBox="0 0 24 24" fill="none" xmlns="http://www.w3.org/2000/svg">
<path d="M14.3666 6.277C14.3502 6.28415 14.3361 6.29581 14.326 6.31062C14.3159 6.32544 14.3102 6.34281 14.3096 6.36073V11.5208H18.621V4.42383H18.3166L14.3666 6.277Z" fill="black"/>
<path d="M9.63329 6.277L5.68333 4.42383H5.37891V11.5208H9.69035V6.36074C9.68971 6.34282 9.68402 6.32545 9.67392 6.31063C9.66382 6.29581 9.64974 6.28415 9.63329 6.277Z" fill="black"/>
<path d="M5.37891 19.3325V19.3782H5.81273L9.62567 18.0121C9.64422 18.006 9.66042 17.9944 9.67201 17.9787C9.68361 17.963 9.69002 17.9441 9.69035 17.9246V12.2812H5.37891V19.3325Z" fill="black"/>
<path d="M14.3096 17.9246C14.3099 17.9441 14.3163 17.963 14.3279 17.9787C14.3395 17.9944 14.3557 18.006 14.3742 18.0121L18.1872 19.3782H18.621V12.2812H14.3096V17.9246Z" fill="black"/>
<path d="M22.4927 21.2766C22.4927 21.2002 22.4777 21.1245 22.4484 21.0539C22.4192 20.9833 22.3763 20.9191 22.3222 20.865C22.2682 20.811 22.204 20.7681 22.1334 20.7388C22.0628 20.7096 21.9871 20.6945 21.9107 20.6945C21.9104 20.6872 21.1253 20.7088 21.1402 20.6869V3.03394C21.1464 2.75501 21.0417 2.48502 20.8491 2.28315C20.6565 2.08129 20.3917 1.96401 20.1128 1.95703H3.8868C3.60789 1.96401 3.34311 2.08129 3.15052 2.28315C2.95792 2.48502 2.85322 2.75501 2.85935 3.03394C2.85695 3.03804 2.86111 20.6901 2.85935 20.6945L2.08892 20.6945C1.9971 20.6981 1.90719 20.7219 1.82566 20.7643C1.74413 20.8066 1.67299 20.8665 1.61735 20.9397C1.56171 21.0128 1.52294 21.0973 1.50384 21.1872C1.48473 21.2771 1.48576 21.3701 1.50685 21.4595C1.50685 21.536 1.5219 21.6117 1.55115 21.6823C1.5804 21.7529 1.62327 21.8171 1.67732 21.8711C1.73137 21.9252 1.79554 21.9681 1.86616 21.9973C1.93679 22.0266 2.01248 22.0416 2.08892 22.0416H21.9107C22.0025 22.0381 22.0924 22.0142 22.1739 21.9718C22.2554 21.9295 22.3265 21.8696 22.3822 21.7964C22.4378 21.7233 22.4765 21.6388 22.4957 21.5489C22.5148 21.459 22.5138 21.3661 22.4927 21.2766ZM19.3821 19.7584C19.3819 19.8593 19.3417 19.9559 19.2704 20.0272C19.1991 20.0985 19.1025 20.1387 19.0016 20.1389H4.99795C4.89712 20.1387 4.8005 20.0985 4.7292 20.0272C4.6579 19.9559 4.61771 19.8593 4.61741 19.7584V4.04237C4.61771 3.94154 4.6579 3.84492 4.7292 3.77362C4.8005 3.70232 4.89712 3.66213 4.99795 3.66183H19.0016C19.1025 3.66213 19.1991 3.70232 19.2704 3.77362C19.3417 3.84492 19.3819 3.94154 19.3821 4.04237V19.7584Z" fill="black"/>
</svg>
