<svg width="24" height="24" viewBox="0 0 24 24" fill="none" xmlns="http://www.w3.org/2000/svg">
<g clip-path="url(#clip0_1456_6352)">
<path d="M18.6207 0H19.4483V0.827586H18.6207V0ZM4.13793 0H4.96552V0.827586H4.13793V0ZM4.13793 6.62069H4.96552V7.44828H4.13793V6.62069ZM19.4483 7.44828H18.6207V6.62069H19.4483V7.44828ZM19.4483 14.069H18.6207V13.2414H19.4483V14.069ZM7.44828 8.27586V15.7241H0V8.27586H7.44828ZM0 16.5517H7.44828V24H0V16.5517ZM15.7241 24H8.27586V16.5517H15.7241V24ZM19.4483 20.6897H18.6207V19.8621H19.4483V20.6897ZM19.4483 24H18.6207V23.1724H19.4483V24ZM24 20.2759C23.9993 20.8244 23.7812 21.3503 23.3933 21.7381C23.0054 22.126 22.4796 22.3442 21.931 22.3448H16.5517V21.5172H21.931C22.2603 21.5172 22.576 21.3865 22.8088 21.1537C23.0416 20.9208 23.1724 20.6051 23.1724 20.2759C23.1724 19.9466 23.0416 19.6309 22.8088 19.3981C22.576 19.1653 22.2603 19.0345 21.931 19.0345H16.5517V18.2069H21.931C22.4796 18.2076 23.0054 18.4257 23.3933 18.8136C23.7812 19.2015 23.9993 19.7273 24 20.2759ZM19.4483 17.3793H18.6207V16.5517H19.4483V17.3793ZM24 13.6552C23.9993 14.2037 23.7812 14.7296 23.3933 15.1174C23.0054 15.5053 22.4796 15.7235 21.931 15.7241H8.27586V14.8966H21.931C22.2603 14.8966 22.576 14.7658 22.8088 14.533C23.0416 14.3002 23.1724 13.9844 23.1724 13.6552C23.1724 13.3259 23.0416 13.0102 22.8088 12.7774C22.576 12.5446 22.2603 12.4138 21.931 12.4138H8.27586V11.5862H21.931C22.4796 11.5869 23.0054 11.8051 23.3933 12.1929C23.7812 12.5808 23.9993 13.1067 24 13.6552ZM19.4483 10.7586H18.6207V9.93104H19.4483V10.7586ZM24 7.03448C23.9993 7.583 23.7812 8.10887 23.3933 8.49674C23.0054 8.8846 22.4796 9.10279 21.931 9.10345H8.27586V8.27586H21.931C22.2603 8.27586 22.576 8.14507 22.8088 7.91227C23.0416 7.67947 23.1724 7.36372 23.1724 7.03448C23.1724 6.70525 23.0416 6.3895 22.8088 6.15669C22.576 5.92389 22.2603 5.7931 21.931 5.7931H2.06897C1.52024 5.7931 0.993992 5.57512 0.605986 5.18712C0.21798 4.79911 0 4.27286 0 3.72414C0 3.17541 0.21798 2.64916 0.605986 2.26116C0.993992 1.87315 1.52024 1.65517 2.06897 1.65517H24V2.48276H2.06897C1.73973 2.48276 1.42398 2.61355 1.19118 2.84635C0.958374 3.07915 0.827586 3.3949 0.827586 3.72414C0.827586 4.05337 0.958374 4.36912 1.19118 4.60193C1.42398 4.83473 1.73973 4.96552 2.06897 4.96552H21.931C22.4796 4.96617 23.0054 5.18436 23.3933 5.57223C23.7812 5.96009 23.9993 6.48596 24 7.03448ZM4.13793 3.31034H4.96552V4.13793H4.13793V3.31034ZM19.4483 4.13793H18.6207V3.31034H19.4483V4.13793Z" fill="#191919"/>
</g>
<defs>
<clipPath id="clip0_1456_6352">
<rect width="24" height="24" fill="white"/>
</clipPath>
</defs>
</svg>
