<svg width="24" height="24" viewBox="0 0 24 24" fill="none" xmlns="http://www.w3.org/2000/svg">
<path d="M0.525498 17.5781H10.5V12.1757H8.65252C7.45596 12.1757 6.48435 11.2043 6.48435 10.0081V8.82613C6.48435 7.62984 7.45596 6.65846 8.65252 6.65846H10.5V1.26562H0.525498C0.257469 1.26562 0.046875 1.48096 0.046875 1.74414V17.0948C0.046875 17.358 0.257469 17.5781 0.525498 17.5781Z" fill="#191919"/>
<path d="M23.4747 1.26562H11.4375V6.66005H15.4754C16.3701 6.66005 17.1403 7.20571 17.4705 7.98113H17.4992C18.7 7.98113 19.6808 8.96237 19.6808 10.1638V11.7577C19.6808 12.7533 19.011 13.6197 18.0541 13.8686L15.0448 14.6631C15.4563 14.9168 15.729 15.3667 15.729 15.8837V17.5781H23.4747C23.7378 17.5781 23.9531 17.3627 23.9531 17.0995V1.74428C23.9531 1.48581 23.7378 1.26562 23.4747 1.26562Z" fill="#191919"/>
<path d="M15.5025 7.59375H8.66316C7.99836 7.59375 7.45312 8.13962 7.45312 8.80519V9.9879C7.45312 10.6535 7.99836 11.1993 8.66316 11.1993H15.5025C16.1721 11.1993 16.7125 10.6535 16.7125 9.9879V9.87298H17.5256C17.6739 9.87298 17.7934 9.99269 17.7934 10.1411V11.7356C17.7934 11.8601 17.7121 11.9655 17.5974 11.9942L13.2211 13.153C13.0155 13.2056 12.8672 13.3972 12.8672 13.6127V15.3843H12.3698C12.1067 15.3843 11.8915 15.5998 11.8915 15.8632V21.2739C11.8915 22.0784 12.542 22.7344 13.3455 22.7344C14.149 22.7344 14.7994 22.0784 14.7994 21.2739V15.8632C14.7994 15.5998 14.589 15.3843 14.3212 15.3843H13.8238V13.9813L17.8413 12.9183C18.3769 12.7795 18.75 12.2911 18.75 11.7356V10.1411C18.75 9.46598 18.2 8.91532 17.5256 8.91532H16.7125V8.80519C16.7125 8.13962 16.1721 7.59375 15.5025 7.59375Z" fill="#191919"/>
</svg>
