<svg width="24" height="24" viewBox="0 0 24 24" fill="none" xmlns="http://www.w3.org/2000/svg">
<g clip-path="url(#clip0_1456_11164)">
<path d="M21.1347 2.50105C20.9301 2.29653 20.6527 2.18164 20.3634 2.18164C20.3633 2.18164 20.3631 2.18164 20.3631 2.18164L19.2725 2.18202V3.27294V4.36386V19.6362V20.7271V21.818H20.3634C20.9659 21.818 21.4543 21.3296 21.4543 20.7271V3.27256C21.4543 2.98315 21.3394 2.70566 21.1347 2.50105Z" fill="#191919"/>
<path d="M16.7016 0.255153C16.4545 0.047872 16.1285 -0.0395497 15.8108 0.0167002L3.44721 2.19981C2.92591 2.29182 2.5459 2.74477 2.5459 3.27408V20.7273C2.5459 21.2567 2.92596 21.7097 3.44726 21.8016L15.8109 23.9834C15.874 23.9945 15.9374 24 16.0004 24C16.2549 24 16.5037 23.9109 16.7017 23.7448C16.9487 23.5375 17.0913 23.2316 17.0913 22.9091V22.683V21.8182V20.7273V19.6364V4.36463V3.27371V2.18279V1.09093C17.0913 0.76848 16.9487 0.462527 16.7016 0.255153ZM12.4084 13.4989C12.2056 13.7019 11.924 13.8182 11.6368 13.8182C11.3496 13.8182 11.0688 13.7018 10.8652 13.4988C10.6622 13.2953 10.5459 13.0146 10.5459 12.7273C10.5459 12.44 10.6622 12.1592 10.8652 11.9557C11.0688 11.7527 11.3495 11.6363 11.6368 11.6363C11.924 11.6363 12.2056 11.7527 12.4084 11.9557C12.6113 12.1593 12.7277 12.44 12.7277 12.7273C12.7277 13.0146 12.6113 13.2954 12.4084 13.4989Z" fill="#191919"/>
</g>
<defs>
<clipPath id="clip0_1456_11164">
<rect width="24" height="24" fill="white"/>
</clipPath>
</defs>
</svg>
