<svg width="212" height="40" viewBox="0 0 212 40" fill="none" xmlns="http://www.w3.org/2000/svg">
<g clip-path="url(#clip0_1701_304)">
<path d="M18.8107 0.324219L-0.347656 27.4744L5.67021 35.9302L24.8105 8.8046L18.8107 0.324219Z" fill="#C3D54D"/>
<path d="M18.959 17.4273L34.9567 39.9495H47.1099L31.1457 17.417L18.959 17.4273Z" fill="#C3D54D"/>
<path d="M188.584 9.94629H168.033V13.6603H188.584V9.94629Z" fill="#C3D54D"/>
<path d="M145.779 13.647H154.158L154.218 30.1811H157.926V13.647H166.677V9.93164H145.779V13.647Z" fill="#C3D54D"/>
<path d="M73.1055 30.1799H94.4281V9.93555H73.1055V30.1799ZM76.8132 13.6496H90.7242V26.4645H76.8132V13.6496Z" fill="#C3D54D"/>
<path d="M116.701 13.7121H132.465L116.701 22.4162V26.5116L132.465 18.3195V26.5116H116.701L116.71 30.1817H136.253L136.241 9.95801H116.701V13.7121Z" fill="#C3D54D"/>
<path d="M71.846 9.98134H67.9034L68.0454 26.5065H66.6103L59.458 9.92188H55.1708H51.2539L51.4359 30.1817H55.2082L55.1798 9.92188L63.851 30.1817H68.0596L68.0454 30.1507H68.0738V30.1817H71.846V30.1507H71.8499V26.774H71.846V9.98134Z" fill="#C3D54D"/>
<path d="M211.775 27.7255L207.676 23.7775L205.256 26.4586V26.4547H193.929V13.6579H207.632L207.664 23.7723L211.416 23.8589V9.92188L190.271 9.92446V30.1817H205.256V26.5233L209.324 30.4403L211.775 27.7255Z" fill="#C3D54D"/>
<path d="M106.744 26.5065H104.715L99.7268 9.92188H95.375L101.092 30.1817H110.224L115.749 9.9361H111.646L106.744 26.5065Z" fill="#C3D54D"/>
<path d="M168.035 30.1854H188.54V26.4985H171.742V20.517H188.572V16.8301L171.558 16.7293L171.553 16.7345L168.035 13.6836V30.1854Z" fill="#C3D54D"/>
</g>
<defs>
<clipPath id="clip0_1701_304">
<rect width="211.852" height="40" fill="white"/>
</clipPath>
</defs>
</svg>
