<svg width="24" height="24" viewBox="0 0 24 24" fill="none" xmlns="http://www.w3.org/2000/svg">
<path d="M20.0491 11.7617L9.54911 23.0117C9.43784 23.1305 9.29097 23.2098 9.13065 23.2377C8.97034 23.2657 8.80528 23.2407 8.66039 23.1667C8.5155 23.0926 8.39863 22.9734 8.32743 22.827C8.25623 22.6807 8.23455 22.5152 8.26568 22.3555L9.64005 15.4808L4.23724 13.452C4.12121 13.4086 4.01773 13.3372 3.93606 13.244C3.85439 13.1508 3.79706 13.0389 3.76921 12.9182C3.74135 12.7975 3.74383 12.6718 3.77642 12.5522C3.80902 12.4327 3.87071 12.3231 3.95599 12.2333L14.456 0.983274C14.5673 0.864526 14.7141 0.785191 14.8744 0.75724C15.0348 0.729289 15.1998 0.75424 15.3447 0.828326C15.4896 0.902412 15.6065 1.02161 15.6777 1.16794C15.7489 1.31428 15.7705 1.47979 15.7394 1.63952L14.3613 8.52171L19.7641 10.5476C19.8793 10.5913 19.9819 10.6627 20.063 10.7555C20.144 10.8483 20.2009 10.9596 20.2287 11.0796C20.2565 11.1996 20.2544 11.3246 20.2224 11.4436C20.1904 11.5626 20.1296 11.6718 20.0454 11.7617H20.0491Z" fill="#191919"/>
</svg>
