<svg width="24" height="24" viewBox="0 0 24 24" fill="none" xmlns="http://www.w3.org/2000/svg">
<path d="M11.9941 17.6133C11.7537 17.7734 11.5032 17.9178 11.2441 18.0455L11.2441 21.7495C11.2441 21.9484 11.3232 22.1392 11.4638 22.2799C11.6045 22.4205 11.7952 22.4995 11.9941 22.4995C12.1931 22.4995 12.3838 22.4205 12.5245 22.2799C12.6651 22.1392 12.7441 21.9484 12.7441 21.7495L12.7441 18.0455C12.4851 17.9178 12.2345 17.7734 11.9941 17.6133Z" fill="#191919"/>
<path d="M18.5719 5.86862C18.0294 4.57323 17.1161 3.46706 15.9468 2.68911C14.7776 1.91115 13.4045 1.49609 12 1.49609C10.5956 1.49609 9.2225 1.91115 8.05324 2.68911C6.88397 3.46706 5.9707 4.57323 5.42815 5.86862C4.26069 6.40951 3.27133 7.27155 2.57572 8.35398C1.88012 9.4364 1.50701 10.6945 1.50003 11.9811C1.48971 15.6205 4.44003 18.6561 8.07565 18.7499C9.17546 18.7786 10.2655 18.5368 11.25 18.0458L11.25 14.713L7.1644 12.6711C6.98638 12.5821 6.851 12.426 6.78806 12.2372C6.72512 12.0484 6.73976 11.8423 6.82878 11.6642C6.91779 11.4862 7.07388 11.3508 7.2627 11.2879C7.45153 11.225 7.65763 11.2396 7.83565 11.3286L11.25 13.0367L11.25 8.24987C11.25 8.05096 11.329 7.8602 11.4697 7.71954C11.6104 7.57889 11.8011 7.49987 12 7.49987C12.1989 7.49987 12.3897 7.57889 12.5304 7.71954C12.671 7.8602 12.75 8.05096 12.75 8.24987L12.75 10.7867L16.1644 9.07862C16.2526 9.03455 16.3485 9.00827 16.4468 9.00128C16.5451 8.9943 16.6439 9.00674 16.7374 9.03791C16.8308 9.06907 16.9173 9.11835 16.9917 9.18292C17.0662 9.24749 17.1272 9.3261 17.1713 9.41425C17.2154 9.5024 17.2416 9.59837 17.2486 9.69667C17.2556 9.79498 17.2432 9.8937 17.212 9.9872C17.1808 10.0807 17.1316 10.1671 17.067 10.2416C17.0024 10.316 16.9238 10.3771 16.8357 10.4211L12.75 12.463L12.75 18.0458C13.6817 18.5105 14.7089 18.7515 15.75 18.7499L15.9244 18.7499C19.56 18.6561 22.5103 15.6224 22.5 11.983C22.4937 10.696 22.1209 9.43734 21.4253 8.35449C20.7296 7.27164 19.7399 6.40937 18.5719 5.86862Z" fill="#191919"/>
</svg>
