<svg width="60" height="245" viewBox="0 0 60 245" fill="none" xmlns="http://www.w3.org/2000/svg">
<path d="M58 -8.74228e-08C59.1046 -3.91406e-08 60 0.895431 60 2L60 229.726C60 230.503 59.5499 231.21 58.8458 231.539L30.8458 244.605C30.3097 244.855 29.6903 244.855 29.1542 244.605L1.15422 231.539C0.450071 231.21 -1.00756e-05 230.503 -1.00417e-05 229.726L-8.74226e-08 1.99999C-3.91403e-08 0.895424 0.895432 -2.58354e-06 2 -2.53526e-06L58 -8.74228e-08Z" fill="#191919"/>
<path d="M18 18.054L43.5 27.676L43.5 31.62L18 41.208L18 37.026L23.678 34.952L23.678 24.31L18 22.236L18 18.054ZM34.524 28.322L27.316 25.636L27.316 33.66L34.524 30.974C35.68 30.532 36.87 30.124 38.128 30.124L39.046 30.124L39.046 29.138L38.128 29.138C36.87 29.138 35.68 28.764 34.524 28.322ZM32.212 50.3476L32.212 55.9236L37.924 55.9236L37.924 59.3236L32.212 59.3236L32.212 64.9336L29.05 64.9336L29.05 59.3236L23.338 59.3236L23.338 55.9236L29.05 55.9236L29.05 50.3476L32.212 50.3476Z" fill="white"/>
</svg>
