<svg width="24" height="24" viewBox="0 0 24 24" fill="none" xmlns="http://www.w3.org/2000/svg">
<g clip-path="url(#clip0_1456_11152)">
<path d="M12.3728 0.107121C12.1449 -0.035707 11.8551 -0.035707 11.6272 0.107121L0.330281 7.18525C0.124969 7.31364 0 7.53887 0 7.78126C0 8.02365 0.124969 8.24889 0.330281 8.37728L11.6272 15.4085C11.7412 15.4799 11.8709 15.5156 12 15.5156C12.1291 15.5156 12.2588 15.4799 12.3728 15.4085L23.6697 8.37728C23.875 8.24889 24 8.02365 24 7.78126C24 7.53887 23.875 7.31364 23.6697 7.18525L12.3728 0.107121Z" fill="#191919"/>
<path d="M22.528 14.9375L13.1178 20.819C12.7835 21.0285 12.3962 21.1397 12 21.1397C11.6038 21.1397 11.2165 21.0285 10.8808 20.8177L1.47192 14.9376L0.330281 15.6218C0.124969 15.7502 0 15.9755 0 16.2178C0 16.4602 0.124969 16.6855 0.330281 16.8139L11.6272 23.892C11.7412 23.9634 11.8709 23.9991 12 23.9991C12.1291 23.9991 12.2588 23.9634 12.3728 23.892L23.6697 16.8139C23.875 16.6855 24 16.4602 24 16.2178C24 15.9755 23.875 15.7502 23.6697 15.6218L22.528 14.9375Z" fill="#191919"/>
<path d="M18.1406 13.461V16.0215L20.3438 14.6445V12.084L18.1406 13.461Z" fill="#191919"/>
<path d="M14.5312 15.7188V18.2793L16.7344 16.9023V14.3418L14.5312 15.7188Z" fill="#191919"/>
<path d="M7.26562 14.3301V16.8904L9.42188 18.2615V15.7012L7.26562 14.3301Z" fill="#191919"/>
<path d="M12 19.7351C12.1291 19.7351 12.2588 19.6994 12.3728 19.628L13.125 19.158V16.5976L13.118 16.602C12.7836 16.8114 12.3962 16.9226 12 16.9226C11.6038 16.9226 11.1978 16.8114 10.862 16.6013L10.8281 16.5801V19.1403L11.6272 19.628C11.7412 19.6994 11.8709 19.7351 12 19.7351Z" fill="#191919"/>
<path d="M22.528 10.7188L21.75 11.205V13.7656L23.6697 12.5951C23.875 12.4667 24 12.2415 24 11.9991C24 11.7567 23.875 11.5315 23.6697 11.4031L22.528 10.7188Z" fill="#191919"/>
<path d="M3.65625 12.0801V14.6404L5.85938 16.0116V13.4512L3.65625 12.0801Z" fill="#191919"/>
<path d="M2.25 13.7615V11.2012L1.47183 10.7207L0.330281 11.4048C0.124969 11.5332 0 11.7585 0 12.0009C0 12.2432 0.124969 12.4685 0.330281 12.5969L2.25 13.7615Z" fill="#191919"/>
</g>
<defs>
<clipPath id="clip0_1456_11152">
<rect width="24" height="24" fill="white"/>
</clipPath>
</defs>
</svg>
