<svg width="24" height="24" viewBox="0 0 24 24" fill="none" xmlns="http://www.w3.org/2000/svg">
<g clip-path="url(#clip0_1456_6367)">
<path d="M23.6935 8.39516L12.4435 0.145195C12.1795 -0.0483982 11.8205 -0.0483982 11.5565 0.145195L0.306516 8.39516C-0.0275136 8.64013 -0.0997008 9.10944 0.145267 9.44347C0.390282 9.7775 0.859639 9.84974 1.19358 9.60472L1.50004 9.37996V21.8436C1.50004 23.0325 2.46735 23.9998 3.65628 23.9998H20.3437C21.5327 23.9998 22.5 23.0325 22.5 21.8436V9.38L22.8064 9.60477C22.9401 9.70278 23.0954 9.75003 23.2493 9.75003C23.4801 9.75003 23.7078 9.64386 23.8547 9.44352C24.0997 9.10944 24.0275 8.64008 23.6935 8.39516ZM12 17.9999C11.3797 17.9999 10.875 17.4952 10.875 16.8749C10.875 16.2546 11.3797 15.7499 12 15.7499C12.6203 15.7499 13.125 16.2546 13.125 16.8749C13.125 17.4952 12.6203 17.9999 12 17.9999ZM14.6519 14.5337C14.5054 14.6801 14.3135 14.7534 14.1216 14.7534C13.9296 14.7534 13.7377 14.6801 13.5913 14.5337C13.1664 14.1089 12.6014 13.8749 12 13.8749C11.3987 13.8749 10.8337 14.1089 10.4088 14.5337C10.116 14.8266 9.64107 14.8266 9.3482 14.5337C9.05528 14.2408 9.05528 13.7659 9.3482 13.4731C10.0563 12.7649 10.9981 12.3749 12 12.3749C13.002 12.3749 13.9438 12.7649 14.6519 13.4731C14.9448 13.7659 14.9448 14.2408 14.6519 14.5337ZM16.5075 12.678C16.3611 12.8244 16.1691 12.8976 15.9773 12.8976C15.7852 12.8976 15.5933 12.8243 15.4468 12.6778C14.5265 11.757 13.3024 11.2499 12 11.2499C10.6976 11.2499 9.4735 11.757 8.55316 12.6778C8.26033 12.9708 7.78539 12.9708 7.49247 12.678C7.19955 12.3852 7.19941 11.9103 7.49224 11.6174C8.69594 10.4132 10.2968 9.74994 12 9.74994C13.7032 9.74994 15.3041 10.4131 16.5078 11.6174C16.8006 11.9103 16.8005 12.3852 16.5075 12.678Z" fill="#191919"/>
</g>
<defs>
<clipPath id="clip0_1456_6367">
<rect width="24" height="24" fill="white"/>
</clipPath>
</defs>
</svg>
