<svg width="24" height="24" viewBox="0 0 24 24" fill="none" xmlns="http://www.w3.org/2000/svg">
<g clip-path="url(#clip0_1456_6384)">
<path d="M23.5262 0H0.474047C0.215484 0 0.00585938 0.209625 0.00585938 0.468188V2.37C0.00585938 2.62856 0.215484 2.83819 0.474047 2.83819H23.5262C23.7848 2.83819 23.9944 2.62856 23.9944 2.37V0.468188C23.9944 0.209625 23.7848 0 23.5262 0Z" fill="#191919"/>
<path d="M21.0473 7.56684V4.24219H2.93652V7.56684C2.93652 12.5602 6.99862 16.6222 11.9919 16.6222C16.9852 16.6222 21.0473 12.5602 21.0473 7.56684ZM11.9919 14.9429C9.50488 14.9429 7.48129 12.9193 7.48129 10.4323C7.48129 7.94522 9.50484 5.92163 11.9919 5.92163C14.479 5.92163 16.5026 7.94517 16.5026 10.4323C16.5026 12.9194 14.479 14.9429 11.9919 14.9429Z" fill="#191919"/>
<path d="M20.0411 19.2749C20.5831 18.5912 20.9375 17.7793 21.0944 16.8618C21.1598 16.4795 20.9029 16.1166 20.5205 16.0512C20.1382 15.9858 19.7753 16.2427 19.7099 16.625C19.4246 18.2932 18.2811 19.4445 16.6036 19.7314C16.2213 19.7968 15.9643 20.1597 16.0297 20.542C16.0882 20.8843 16.3852 21.126 16.7211 21.126C16.8949 21.126 18.7754 20.8749 20.0411 19.2749Z" fill="#191919"/>
<path d="M23.3936 16.3383C23.011 16.2728 22.6483 16.5299 22.583 16.9122C22.08 19.8534 19.9432 22.0825 16.8907 22.6045C16.5083 22.6699 16.2514 23.0328 16.3168 23.4151C16.3823 23.7982 16.7459 24.0543 17.1274 23.989C19.1329 23.6461 20.9819 22.6295 22.2769 20.9921C23.1389 19.9049 23.7235 18.5759 23.9675 17.1489C24.0328 16.7666 23.7759 16.4037 23.3936 16.3383Z" fill="#191919"/>
<path d="M7.37992 19.7314C5.69743 19.4437 4.55809 18.2887 4.27356 16.625C4.20817 16.2427 3.84536 15.9858 3.46295 16.0512C3.08064 16.1166 2.82371 16.4795 2.88906 16.8618C3.27564 19.1222 4.88246 20.7293 7.1432 21.1159C7.52528 21.1813 7.88842 20.9245 7.95386 20.542C8.01915 20.1597 7.76223 19.7968 7.37992 19.7314Z" fill="#191919"/>
<path d="M7.09279 22.6045C4.08998 22.091 1.91226 19.905 1.40048 16.9121C1.33513 16.5299 0.972603 16.2729 0.589869 16.3383C0.207556 16.4037 -0.0493657 16.7666 0.0160249 17.1489C0.628728 20.7321 3.27515 23.3767 6.85607 23.989C7.23824 24.0544 7.60129 23.7975 7.66668 23.4152C7.73207 23.0328 7.4751 22.6698 7.09279 22.6045Z" fill="#191919"/>
<path d="M11.9918 7.32617C10.2791 7.32617 8.88574 8.71953 8.88574 10.4322C8.88574 12.1449 10.2791 13.5382 11.9918 13.5382C13.7044 13.5382 15.0978 12.1449 15.0978 10.4322C15.0978 8.71953 13.7044 7.32617 11.9918 7.32617ZM11.9918 11.1345C11.6046 11.1345 11.2895 10.8194 11.2895 10.4322C11.2895 10.045 11.6046 9.72992 11.9918 9.72992C12.379 9.72992 12.6941 10.045 12.6941 10.4322C12.6941 10.8194 12.379 11.1345 11.9918 11.1345Z" fill="#191919"/>
</g>
<defs>
<clipPath id="clip0_1456_6384">
<rect width="24" height="24" fill="white"/>
</clipPath>
</defs>
</svg>
