<svg width="24" height="24" viewBox="0 0 24 24" fill="none" xmlns="http://www.w3.org/2000/svg">
<path d="M12.5455 5.25C12.5455 4.00125 13.5164 3 14.7273 3H18.5455C19.7455 3 20.7273 4.0125 20.7273 5.25V7.68C19.4618 8.14125 18.5455 9.37875 18.5455 10.8413V13.125H12.5455V5.25ZM5.45455 10.83V13.125H11.4545V5.25C11.4545 4.00125 10.4836 3 9.27273 3H5.45455C4.25455 3 3.27273 4.0125 3.27273 5.25V7.66875C4.53818 8.13 5.45455 9.37875 5.45455 10.83ZM21.4473 8.65875C20.3782 8.83875 19.6364 9.885 19.6364 11.01V14.25H4.36364V10.875C4.36364 10.2783 4.13377 9.70597 3.7246 9.28401C3.31543 8.86205 2.76047 8.625 2.18182 8.625C1.60316 8.625 1.04821 8.86205 0.63904 9.28401C0.22987 9.70597 0 10.2783 0 10.875V16.5C0 17.7375 0.981818 18.75 2.18182 18.75V21H4.36364V18.75H19.6364V21H21.8182V18.75C23.0182 18.75 24 17.7375 24 16.5V10.875C24 9.51375 22.8109 8.4225 21.4473 8.65875Z" fill="#191919"/>
</svg>
