<svg width="24" height="24" viewBox="0 0 24 24" fill="none" xmlns="http://www.w3.org/2000/svg">
<path d="M5.57143 0H18.4286C19.1106 0 19.7646 0.252856 20.2468 0.702944C20.7291 1.15303 21 1.76348 21 2.4V8.4H3V2.4C3 1.76348 3.27092 1.15303 3.75315 0.702944C4.23539 0.252856 4.88944 0 5.57143 0ZM21 20.4C21 21.0365 20.7291 21.647 20.2468 22.0971C19.7646 22.5471 19.1106 22.8 18.4286 22.8V24H15.8571V22.8H8.14286V24H5.57143V22.8C4.88944 22.8 4.23539 22.5471 3.75315 22.0971C3.27092 21.647 3 21.0365 3 20.4V9.6H21V20.4ZM6.85714 3.6V6H9.42857V3.6H6.85714ZM6.85714 12V15.6H9.42857V12H6.85714Z" fill="#191919"/>
</svg>
