<svg width="24" height="24" viewBox="0 0 24 24" fill="none" xmlns="http://www.w3.org/2000/svg">
<g clip-path="url(#clip0_1456_11199)">
<path d="M8.05736 6.99947C7.96136 6.99947 7.86436 6.97247 7.77936 6.91547C7.55036 6.76247 7.48736 6.45247 7.64136 6.22247C8.30936 5.21947 8.01036 4.61547 7.59736 3.77947C7.15536 2.88647 6.60536 1.77447 7.64136 0.22247C7.79536 -0.00752975 8.10736 -0.0685297 8.33436 0.0834702C8.56336 0.23647 8.62636 0.54647 8.47336 0.77647C7.75836 1.84947 8.08236 2.50547 8.49336 3.33647C8.92536 4.20847 9.46136 5.29447 8.47236 6.77647C8.37636 6.92147 8.21836 6.99947 8.05736 6.99947Z" fill="#191919"/>
<path d="M12.04 6.99947C11.944 6.99947 11.848 6.97247 11.763 6.91547C11.534 6.76247 11.471 6.45247 11.624 6.22247C12.292 5.22047 11.993 4.61647 11.58 3.78047C11.139 2.88747 10.589 1.77547 11.624 0.22247C11.777 -0.00752975 12.09 -0.0685297 12.317 0.0834702C12.546 0.23647 12.609 0.54647 12.456 0.77647C11.741 1.84947 12.065 2.50547 12.477 3.33647C12.909 4.20847 13.445 5.29447 12.456 6.77647C12.359 6.92147 12.201 6.99947 12.04 6.99947Z" fill="#191919"/>
<path d="M16.0234 6.99947C15.9274 6.99947 15.8314 6.97247 15.7464 6.91547C15.5174 6.76247 15.4544 6.45247 15.6074 6.22247C16.2754 5.22047 15.9764 4.61647 15.5634 3.78047C15.1224 2.88747 14.5724 1.77547 15.6074 0.22247C15.7604 -0.00752975 16.0734 -0.0685297 16.3004 0.0834702C16.5294 0.23647 16.5924 0.54647 16.4394 0.77647C15.7244 1.84947 16.0484 2.50547 16.4604 3.33647C16.8924 4.20847 17.4284 5.29447 16.4394 6.77647C16.3434 6.92147 16.1854 6.99947 16.0234 6.99947Z" fill="#191919"/>
<path d="M20.5 8H3.5C2.121 8 1 9.122 1 10.5V19.5C1 20.878 2.121 22 3.5 22H20.5C21.879 22 23 20.878 23 19.5V10.5C23 9.122 21.879 8 20.5 8ZM5 19.5C5 19.776 4.776 20 4.5 20C4.224 20 4 19.776 4 19.5V10.5C4 10.224 4.224 10 4.5 10C4.776 10 5 10.224 5 10.5V19.5ZM8 19.5C8 19.776 7.776 20 7.5 20C7.224 20 7 19.776 7 19.5V10.5C7 10.224 7.224 10 7.5 10C7.776 10 8 10.224 8 10.5V19.5ZM11 19.5C11 19.776 10.776 20 10.5 20C10.224 20 10 19.776 10 19.5V10.5C10 10.224 10.224 10 10.5 10C10.776 10 11 10.224 11 10.5V19.5ZM14 19.5C14 19.776 13.776 20 13.5 20C13.224 20 13 19.776 13 19.5V10.5C13 10.224 13.224 10 13.5 10C13.776 10 14 10.224 14 10.5V19.5ZM17 19.5C17 19.776 16.776 20 16.5 20C16.224 20 16 19.776 16 19.5V10.5C16 10.224 16.224 10 16.5 10C16.776 10 17 10.224 17 10.5V19.5ZM20 19.5C20 19.776 19.776 20 19.5 20C19.224 20 19 19.776 19 19.5V10.5C19 10.224 19.224 10 19.5 10C19.776 10 20 10.224 20 10.5V19.5Z" fill="#191919"/>
<path d="M5.5 24C5.224 24 5 23.776 5 23.5V21.5C5 21.224 5.224 21 5.5 21C5.776 21 6 21.224 6 21.5V23.5C6 23.776 5.776 24 5.5 24Z" fill="#191919"/>
<path d="M18.5 24C18.224 24 18 23.776 18 23.5V21.5C18 21.224 18.224 21 18.5 21C18.776 21 19 21.224 19 21.5V23.5C19 23.776 18.776 24 18.5 24Z" fill="#191919"/>
</g>
<defs>
<clipPath id="clip0_1456_11199">
<rect width="24" height="24" fill="white"/>
</clipPath>
</defs>
</svg>
