<svg width="72" height="72" viewBox="0 0 72 72" fill="none" xmlns="http://www.w3.org/2000/svg">
<g clip-path="url(#clip0_1456_6266)">
<path fill-rule="evenodd" clip-rule="evenodd" d="M36.0253 71.9725C55.8904 71.9725 71.9979 55.865 71.9979 35.9999C71.9979 16.1349 55.8904 0.0273438 36.0253 0.0273438C16.1603 0.0273438 0.0527344 16.1349 0.0527344 35.9999C0.0527344 55.865 16.1589 71.9725 36.0253 71.9725Z" fill="#191919"/>
<path d="M36.0253 8.02148L35.1288 10.7784H32.2285L34.5667 12.4773L33.6871 15.2553L36.0253 13.5565L38.3607 15.2553L37.4839 12.4773L39.8221 10.7784H36.9246L36.0253 8.02148Z" fill="#F4F4F4"/>
<path d="M36.9246 58.7413L36.0253 55.9844L35.1288 58.7413H32.2285L34.5667 60.4402L33.6871 63.2182L36.0253 61.5194L38.3607 63.2182L37.4811 60.4402L39.8193 58.7413H36.9246Z" fill="#F4F4F4"/>
<path d="M12.0429 37.5457L14.3811 39.2319L13.5015 36.4539L15.8397 34.755H12.9422L12.0429 31.998L11.1436 34.755H8.24609L10.5843 36.4539L9.70467 39.2319L12.0429 37.5457Z" fill="#F4F4F4"/>
<path d="M24.0284 11.2383L23.129 13.9966H20.2344L22.5726 15.7152L21.693 18.4721L24.0284 16.7494L26.3666 18.4679L25.4869 15.711L27.8266 13.9924H24.9347L24.0284 11.2383Z" fill="#F4F4F4"/>
<path d="M15.2616 20.0117L14.3623 22.7687H11.4648L13.8031 24.4675L12.9037 27.2456L15.2616 25.5467L17.5999 27.2456L16.7005 24.4675L19.0584 22.7687H16.1595L15.2616 20.0117Z" fill="#F4F4F4"/>
<path d="M16.1595 46.7511L15.2602 43.9941L14.3609 46.7511H11.4648L13.8031 48.45L12.9037 51.228L15.2616 49.5291L17.5999 51.228L16.7005 48.45L19.0584 46.7511H16.1595Z" fill="#F4F4F4"/>
<path d="M24.9333 55.5316L24.0284 52.7676L23.1347 55.5316H20.2344L22.5726 57.2501L21.6958 60L24.0284 58.2815L26.3666 60L25.4869 57.2431L27.8308 55.5316H24.9333Z" fill="#F4F4F4"/>
<path d="M63.8048 34.7609H60.9074L60.008 32.0039L59.1087 34.7609H56.207L58.5453 36.4597L57.6698 39.2322L60.008 37.5459L62.3463 39.2322L61.4666 36.4541L63.8048 34.7609Z" fill="#F4F4F4"/>
<path d="M48.0155 11.2383L47.1162 13.9966H44.2188L46.557 15.7152L45.6773 18.4721L48.0155 16.7494L50.3538 18.4679L49.4741 15.711L51.8123 13.9924H48.9149L48.0155 11.2383Z" fill="#F4F4F4"/>
<path d="M55.3501 24.4675L54.4508 27.2456L56.789 25.5467L59.1469 27.2456L58.2476 24.4675L60.5858 22.7687H57.6883L56.789 20.0117L55.8897 22.7687H52.9922L55.3501 24.4675Z" fill="#F4F4F4"/>
<path d="M57.6883 46.7511L56.789 43.9941L55.8897 46.7511H52.9922L55.3501 48.45L54.4508 51.228L56.789 49.5291L59.1469 51.228L58.2476 48.45L60.5872 46.7511H57.6883Z" fill="#F4F4F4"/>
<path d="M48.9149 55.5324L48.0155 52.7754L47.1162 55.5324H44.2188L46.557 57.2509L45.6773 60.0079L48.0155 58.2893L50.3538 60.0079L49.4741 57.2509L51.8123 55.5324H48.9149Z" fill="#F4F4F4"/>
</g>
<defs>
<clipPath id="clip0_1456_6266">
<rect width="72" height="72" fill="white"/>
</clipPath>
</defs>
</svg>
