<svg width="24" height="24" viewBox="0 0 24 24" fill="none" xmlns="http://www.w3.org/2000/svg">
<path d="M15.5156 11.2969C15.904 11.2969 16.2188 10.9821 16.2188 10.5938C16.2188 10.2054 15.904 9.89062 15.5156 9.89062C15.1273 9.89062 14.8125 10.2054 14.8125 10.5938C14.8125 10.9821 15.1273 11.2969 15.5156 11.2969Z" fill="#191919"/>
<path d="M13.7549 11.7519C13.7251 11.7069 13.697 11.6606 13.6706 11.6133C13.1342 11.8283 12.5673 11.9366 12.0001 11.9366C11.5731 11.9366 11.1462 11.8751 10.7324 11.753C10.9169 12.5132 11.2783 13.205 11.7705 13.782C12.7218 13.4671 13.4605 12.7131 13.7549 11.7519Z" fill="#191919"/>
<path d="M13.449 10.1705C13.46 10.1168 13.4736 10.0641 13.4886 10.012C12.5579 9.61391 11.7938 8.91631 11.3131 8.03516C10.9214 8.6758 10.6721 9.41248 10.6094 10.2009C11.5047 10.6518 12.5608 10.6416 13.449 10.1705Z" fill="#191919"/>
<path d="M16.0987 8.56675C16.4969 7.63605 17.1944 6.87194 18.0756 6.39119C17.435 5.9995 16.6983 5.75022 15.9098 5.6875C15.459 6.58291 15.4691 7.63891 15.9402 8.52709C15.9939 8.53811 16.0466 8.55175 16.0987 8.56675Z" fill="#191919"/>
<path d="M14.3562 8.83486C14.4013 8.80509 14.4475 8.77697 14.4949 8.75063C14.118 7.81041 14.0711 6.77606 14.3548 5.8125C13.5948 5.99705 12.9032 6.35836 12.3262 6.85045C12.6412 7.80178 13.3952 8.54053 14.3562 8.83486Z" fill="#191919"/>
<path d="M14.9329 12.6211C14.5348 13.5518 13.8372 14.3159 12.9561 14.7967C13.5967 15.1883 14.3334 15.4376 15.1218 15.5003C15.5727 14.6049 15.5626 13.5489 15.0914 12.6607C15.0377 12.6497 14.985 12.6361 14.9329 12.6211Z" fill="#191919"/>
<path d="M21.4219 1.45312H7.03125V19.7344H21.4219C22.8435 19.7344 24 18.5778 24 17.1562V4.03125C24 2.60967 22.8435 1.45312 21.4219 1.45312ZM15.5156 16.9219C12.0263 16.9219 9.1875 14.0831 9.1875 10.5938C9.1875 7.10442 12.0263 4.26562 15.5156 4.26562C19.005 4.26562 21.8438 7.10442 21.8438 10.5938C21.8438 14.0831 19.005 16.9219 15.5156 16.9219Z" fill="#191919"/>
<path d="M16.6748 12.3555C16.6297 12.3852 16.5835 12.4134 16.5361 12.4397C16.9131 13.3799 16.96 14.4143 16.6763 15.3778C17.4363 15.1933 18.1279 14.832 18.7049 14.3399C18.3899 13.3885 17.6359 12.6498 16.6748 12.3555Z" fill="#191919"/>
<path d="M17.2764 9.43245C17.3061 9.4775 17.3343 9.52377 17.3606 9.57111C18.3008 9.19419 19.3352 9.14727 20.2987 9.43095C20.1142 8.67087 19.7529 7.97928 19.2607 7.40234C18.3094 7.71734 17.5707 8.47137 17.2764 9.43245Z" fill="#191919"/>
<path d="M17.5816 11.0174C17.5706 11.071 17.557 11.1238 17.542 11.1759C18.4727 11.574 19.2368 12.2716 19.7176 13.1528C20.1092 12.5121 20.3585 11.7754 20.4212 10.987C19.5258 10.5361 18.4698 10.5462 17.5816 11.0174Z" fill="#191919"/>
<path d="M0 4.03125V17.1562C0 18.5778 1.15655 19.7344 2.57812 19.7344H5.625V1.45312H2.57812C1.15655 1.45312 0 2.60967 0 4.03125ZM2.8125 16.9219C2.42419 16.9219 2.10938 16.6071 2.10938 16.2188C2.10938 15.8304 2.42419 15.5156 2.8125 15.5156C3.20081 15.5156 3.51562 15.8304 3.51562 16.2188C3.51562 16.6071 3.20081 16.9219 2.8125 16.9219ZM2.8125 14.1094C2.42419 14.1094 2.10938 13.7946 2.10938 13.4062C2.10938 13.0179 2.42419 12.7031 2.8125 12.7031C3.20081 12.7031 3.51562 13.0179 3.51562 13.4062C3.51562 13.7946 3.20081 14.1094 2.8125 14.1094ZM3.51562 4.96875V10.5938C3.51562 10.9821 3.20081 11.2969 2.8125 11.2969C2.42419 11.2969 2.10938 10.9821 2.10938 10.5938V4.96875C2.10938 4.58044 2.42419 4.26562 2.8125 4.26562C3.20081 4.26562 3.51562 4.58044 3.51562 4.96875Z" fill="#191919"/>
<path d="M18.6094 21.8438C18.6094 22.2321 18.9242 22.5469 19.3125 22.5469H20.7188C21.1071 22.5469 21.4219 22.2321 21.4219 21.8438V21.1406H18.6094V21.8438Z" fill="#191919"/>
<path d="M2.57812 21.8438C2.57812 22.2321 2.89294 22.5469 3.28125 22.5469H4.6875C5.07581 22.5469 5.39062 22.2321 5.39062 21.8438V21.1406H2.57812V21.8438Z" fill="#191919"/>
</svg>
