<svg width="17" height="16" viewBox="0 0 17 16" fill="none" xmlns="http://www.w3.org/2000/svg">
<path d="M0 7.39496L1.12045 3.94398L4.39216 5.01961C5.2437 5.28852 5.7367 5.69188 6.36415 6.4986L7.39496 5.7367C6.76751 4.84034 6.58824 4.03362 6.58824 3.40616V0H10.2185V3.45098C10.2185 4.39216 10.084 4.92997 9.5014 5.7367L10.5322 6.4986C11.2045 5.64706 11.8319 5.2437 12.5042 5.01961L15.6863 3.9888L16.8067 7.39496L13.535 8.56023C13.2213 8.64986 12.8627 8.69468 12.4594 8.69468C12.1008 8.69468 11.6527 8.64986 11.1148 8.47059L10.7115 9.72549C11.7423 10.0392 12.2801 10.5322 12.6835 11.07L14.7003 13.8039L11.7423 16L9.72549 13.2213C9.32213 12.6387 9.0084 11.9664 9.0084 10.8459H7.7535C7.7535 11.9664 7.43978 12.6387 7.03642 13.2213L5.06443 15.9552L2.10644 13.7591L4.03361 10.9804C4.43698 10.4426 5.01961 9.94958 6.05042 9.59104L5.64706 8.38095C5.10924 8.51541 4.66106 8.60504 4.2577 8.60504C3.85434 8.60504 3.54062 8.56023 3.18207 8.42577L0 7.39496Z" fill="#C3D54D"/>
</svg>
