<svg width="24" height="24" viewBox="0 0 24 24" fill="none" xmlns="http://www.w3.org/2000/svg">
<path d="M20.559 5.55898C21.1449 4.97305 21.1449 4.02148 20.559 3.43555C19.973 2.84961 19.0215 2.84961 18.4355 3.43555L3.43555 18.4355C2.84961 19.0215 2.84961 19.973 3.43555 20.559C4.02148 21.1449 4.97305 21.1449 5.55898 20.559L20.559 5.55898ZM8.99961 5.99961C8.99961 5.20396 8.68354 4.4409 8.12093 3.87829C7.55832 3.31568 6.79526 2.99961 5.99961 2.99961C5.20396 2.99961 4.4409 3.31568 3.87829 3.87829C3.31568 4.4409 2.99961 5.20396 2.99961 5.99961C2.99961 6.79526 3.31568 7.55832 3.87829 8.12093C4.4409 8.68354 5.20396 8.99961 5.99961 8.99961C6.79526 8.99961 7.55832 8.68354 8.12093 8.12093C8.68354 7.55832 8.99961 6.79526 8.99961 5.99961ZM20.9996 17.9996C20.9996 17.204 20.6835 16.4409 20.1209 15.8783C19.5583 15.3157 18.7953 14.9996 17.9996 14.9996C17.204 14.9996 16.4409 15.3157 15.8783 15.8783C15.3157 16.4409 14.9996 17.204 14.9996 17.9996C14.9996 18.7953 15.3157 19.5583 15.8783 20.1209C16.4409 20.6835 17.204 20.9996 17.9996 20.9996C18.7953 20.9996 19.5583 20.6835 20.1209 20.1209C20.6835 19.5583 20.9996 18.7953 20.9996 17.9996Z" fill="#191919"/>
</svg>
